<?xml version="1.0" standalone="no"?>
<!DOCTYPE svg PUBLIC "-//W3C//DTD SVG 20010904//EN"
 "http://www.w3.org/TR/2001/REC-SVG-20010904/DTD/svg10.dtd">
<svg version="1.0" xmlns="http://www.w3.org/2000/svg"
 width="960.000000pt" height="960.000000pt" viewBox="0 0 960.000000 960.000000"
 preserveAspectRatio="xMidYMid meet">
<metadata>
Created by potrace 1.11, written by Peter Selinger 2001-2013
</metadata>
<g transform="translate(0.000000,960.000000) scale(0.100000,-0.100000)"
fill="#000000" stroke="none">
<path d="M4371 9404 c22 -27 52 -34 72 -16 28 25 20 32 -34 32 -46 0 -50 -2
-38 -16z"/>
<path d="M4812 9397 c-27 -28 -28 -47 -4 -47 20 0 92 32 125 55 20 14 18 15
-39 15 -50 0 -64 -4 -82 -23z"/>
<path d="M6210 9406 c0 -19 25 -37 41 -31 8 3 20 14 27 25 11 19 10 20 -28 20
-27 0 -40 -4 -40 -14z"/>
<path d="M3468 9349 c-10 -5 -18 -19 -18 -29 0 -21 24 -26 48 -11 15 9 13 43
-3 47 -5 2 -18 -1 -27 -7z"/>
<path d="M4343 9313 c-7 -3 -13 -21 -13 -41 0 -26 -6 -41 -20 -50 -18 -11 -20
-10 -20 16 0 31 -21 55 -57 66 -28 9 -29 2 -3 -26 26 -29 25 -36 -7 -49 -16
-6 -41 -17 -56 -25 -60 -30 -145 -9 -205 49 l-38 37 -17 -38 c-19 -44 -52 -65
-174 -112 -46 -17 -83 -36 -83 -41 0 -15 -20 -10 -53 15 -59 44 -92 25 -148
-84 -18 -36 -48 -87 -65 -115 -42 -67 -84 -176 -91 -233 -2 -26 -6 -56 -7 -67
-2 -11 -12 -22 -22 -24 -10 -1 -33 -14 -51 -27 -17 -13 -40 -24 -50 -24 -10
-1 -28 -7 -41 -14 -20 -11 -32 -9 -81 8 -54 19 -60 19 -83 4 -30 -19 -47 -90
-38 -155 7 -47 58 -113 104 -134 16 -7 41 -23 57 -36 36 -30 65 -34 141 -16
70 16 128 4 128 -26 0 -10 24 -42 54 -72 41 -41 56 -63 60 -92 4 -21 11 -48
18 -60 15 -27 12 -70 -7 -106 -25 -50 -37 -53 -90 -27 -37 19 -53 22 -72 15
-40 -15 -71 -10 -131 20 -104 54 -136 41 -86 -34 27 -42 35 -48 182 -147 90
-61 93 -64 86 -93 -15 -61 -8 -92 34 -157 22 -34 46 -84 53 -111 7 -31 21 -55
38 -67 14 -11 32 -25 39 -31 8 -6 32 -11 55 -11 22 1 50 -4 61 -10 39 -21 109
-97 103 -112 -8 -20 -128 -101 -149 -99 -10 0 -24 1 -32 2 -8 1 -27 11 -43 24
-28 22 -32 23 -258 21 -126 -1 -236 -2 -242 -3 -8 0 -13 -16 -13 -38 0 -43
-28 -96 -59 -113 -24 -12 -22 -17 -22 79 -1 52 3 67 23 88 l23 26 -40 -9 c-22
-4 -64 -8 -93 -8 -43 1 -59 7 -91 32 -26 21 -42 28 -52 21 -32 -20 -142 -43
-169 -34 -10 3 -21 20 -24 39 -4 18 -17 43 -30 55 -14 13 -22 28 -20 35 8 20
-39 54 -81 58 -22 3 -48 8 -57 12 -16 7 -17 5 -8 -20 15 -47 19 -106 9 -132
-8 -21 -14 -23 -42 -18 -37 7 -37 7 -98 0 -26 -3 -56 -1 -66 4 -16 9 -22 6
-36 -17 -22 -38 -84 -79 -130 -86 -45 -7 -138 20 -131 38 2 7 21 12 42 13 61
1 87 12 130 55 65 64 65 131 0 177 -10 7 -16 18 -13 23 4 5 3 9 -2 10 -4 0
-17 3 -28 5 -11 2 -42 7 -68 9 -27 3 -58 10 -69 16 -29 15 -63 4 -107 -37
l-39 -35 18 -50 c15 -44 16 -57 5 -93 -17 -57 -11 -66 41 -66 35 0 44 -3 44
-17 0 -37 -16 -47 -48 -34 -17 7 -38 21 -48 32 -21 23 -34 24 -34 4 0 -8 18
-26 40 -40 50 -32 64 -58 57 -110 -4 -26 -2 -46 5 -53 13 -13 10 -19 -12 -22
-30 -4 -51 0 -45 10 8 13 -22 70 -38 71 -83 9 -93 5 -72 -28 10 -15 13 -29 8
-36 -18 -24 -1 -67 38 -96 37 -27 43 -23 44 29 0 59 23 50 32 -12 9 -62 8
-109 -1 -158 -7 -32 -4 -37 18 -49 34 -19 73 -101 47 -101 -5 0 -17 17 -26 38
-25 53 -122 142 -155 142 -14 0 -31 5 -37 11 -16 16 -141 15 -200 -1 -57 -16
-122 -65 -162 -124 -25 -36 -29 -52 -29 -107 0 -118 36 -163 163 -203 33 -11
71 -30 85 -42 42 -38 73 -40 138 -8 148 71 228 154 223 232 -1 26 2 32 19 32
36 0 74 -27 95 -66 16 -29 20 -56 19 -120 0 -82 0 -82 24 -78 14 3 40 11 60
19 19 8 35 15 36 15 1 0 3 -17 4 -39 3 -49 -17 -69 -55 -52 -14 6 -27 10 -30
8 -5 -6 67 -77 77 -77 11 0 6 -56 -13 -155 -9 -44 -18 -108 -22 -142 l-5 -62
40 -12 c22 -7 40 -15 40 -18 -1 -3 -9 -31 -20 -61 -13 -39 -24 -56 -38 -58
-11 -2 -31 -16 -46 -33 -14 -16 -30 -29 -36 -29 -19 0 -31 41 -24 89 9 70 0
96 -38 111 -18 7 -42 21 -53 30 -30 26 -46 28 -95 14 -92 -27 -128 -2 -107 74
10 39 9 45 -6 57 -13 9 -27 10 -57 2 -44 -12 -51 -8 -90 63 -25 46 -91 100
-126 102 -18 2 -51 25 -98 70 -67 64 -85 73 -130 68 -32 -3 -66 -31 -66 -53 0
-11 18 -37 41 -58 52 -48 35 -60 -34 -23 -29 15 -63 28 -77 29 -14 2 -49 12
-79 24 -58 23 -148 34 -157 20 -3 -5 -12 -9 -21 -9 -8 0 -28 -9 -44 -21 -43
-30 -40 -71 8 -115 20 -19 47 -34 59 -34 13 0 35 -5 51 -11 15 -6 53 -12 83
-14 51 -3 181 -55 315 -127 30 -16 102 -89 160 -163 30 -39 49 -58 124 -129
22 -22 41 -45 41 -52 0 -8 26 -21 58 -30 31 -9 63 -21 70 -27 7 -5 49 -11 93
-13 68 -2 84 -6 101 -24 16 -17 29 -21 59 -18 22 2 39 1 40 -2 4 -32 11 -46
33 -69 17 -17 26 -38 26 -58 0 -18 5 -35 11 -39 8 -5 8 -9 -1 -14 -20 -12
-100 18 -122 45 -23 30 -67 54 -106 59 -37 4 -71 23 -98 55 -13 15 -52 42 -88
60 -57 30 -74 34 -140 33 -64 -1 -76 2 -81 18 -8 26 -42 46 -98 57 -54 12 -59
4 -21 -32 24 -22 85 -43 107 -37 5 2 11 -5 14 -15 5 -21 83 -81 123 -96 15 -6
32 -23 38 -40 11 -28 13 -29 59 -24 53 6 108 -15 99 -38 -2 -7 1 -21 9 -32 11
-15 18 -16 44 -7 25 10 32 9 46 -6 15 -16 14 -19 -11 -39 -31 -24 -69 -27
-110 -7 -58 29 -79 29 -112 1 -18 -15 -32 -32 -32 -39 0 -7 -16 -27 -35 -46
-19 -19 -35 -37 -35 -41 0 -4 14 -12 30 -19 45 -19 60 -44 49 -86 -13 -45 1
-69 54 -92 33 -14 44 -26 52 -53 7 -24 17 -35 34 -37 31 -5 48 12 32 32 -28
34 -4 36 57 6 75 -38 195 -54 263 -35 35 9 61 -17 53 -53 -10 -42 -11 -42 -88
-42 -61 0 -77 4 -106 25 -42 31 -51 31 -89 -1 -28 -24 -38 -26 -122 -25 -50 0
-111 -4 -137 -10 -26 -6 -64 -13 -84 -14 -62 -5 -76 -14 -118 -72 -54 -75 -52
-87 14 -112 75 -28 105 -31 147 -14 20 8 54 13 74 11 36 -3 39 -6 52 -52 11
-36 11 -51 3 -56 -6 -4 -13 -20 -16 -36 -3 -22 1 -35 18 -50 41 -36 72 -43
169 -38 114 5 128 -3 123 -73 -1 -26 4 -62 12 -81 9 -23 11 -39 4 -47 -5 -6
-12 -31 -14 -54 -2 -23 -7 -45 -10 -48 -3 -4 -26 -6 -50 -6 -34 0 -57 8 -102
39 -60 39 -72 42 -241 59 -56 6 -145 29 -226 59 -64 25 -66 25 -122 9 -53 -15
-59 -15 -89 1 -18 9 -40 18 -50 20 -33 5 -15 21 25 22 42 1 59 15 54 43 -2 9
-4 19 -4 22 -2 12 -37 46 -59 58 -13 7 -35 10 -49 6 -22 -5 -25 -10 -21 -41 5
-42 5 -42 -109 32 -48 31 -100 60 -117 65 -44 13 -74 -10 -82 -63 -4 -23 -19
-54 -36 -73 -16 -19 -26 -39 -22 -48 5 -14 103 -63 149 -74 85 -21 109 -22
177 -8 31 6 37 4 43 -14 7 -23 34 -34 91 -36 29 0 60 -12 101 -37 33 -20 72
-39 87 -42 15 -3 36 -16 47 -30 11 -15 26 -26 32 -26 15 0 217 -96 230 -109 7
-7 4 -18 -11 -34 -12 -13 -22 -27 -22 -33 0 -5 23 -29 51 -53 l51 -44 -49 -26
c-33 -18 -49 -33 -51 -49 -3 -22 -1 -23 39 -17 61 9 122 32 179 65 43 25 53
28 85 19 20 -6 50 -23 68 -39 l32 -28 -38 -37 c-43 -42 -45 -49 -16 -73 53
-42 78 -72 74 -85 -5 -11 -102 -52 -255 -108 -34 -13 -57 -48 -39 -60 22 -13
71 2 124 37 42 29 59 34 107 34 31 0 60 -4 63 -10 3 -5 17 -10 31 -10 13 0 24
-3 25 -7 1 -16 7 -41 13 -61 4 -11 3 -23 -2 -26 -13 -8 -2 -56 12 -56 6 0 4
-5 -5 -10 -14 -8 -15 -17 -7 -56 7 -32 7 -54 -1 -71 -8 -18 -8 -30 3 -52 13
-25 13 -30 -2 -44 -15 -16 -15 -17 2 -17 18 0 18 -2 -6 -83 -8 -27 -8 -44 0
-61 7 -17 7 -27 -1 -35 -8 -8 -8 -11 2 -11 7 0 9 -4 6 -10 -7 -11 12 -51 29
-62 6 -4 21 -8 34 -8 18 0 22 -6 22 -30 0 -17 7 -41 16 -55 8 -13 17 -46 19
-74 2 -28 7 -56 11 -62 4 -7 8 -34 9 -61 1 -27 7 -54 12 -59 16 -16 74 -18
108 -4 33 13 74 22 152 31 43 5 54 3 59 -10 16 -42 -34 -59 -256 -86 -108 -14
-140 -27 -172 -71 -13 -17 -40 -39 -60 -50 -20 -10 -44 -29 -53 -41 -15 -22
-14 -24 10 -34 23 -9 41 -10 110 -5 11 0 58 26 105 57 83 55 125 68 153 46 7
-5 27 -14 45 -20 32 -11 34 -10 48 23 17 42 26 43 149 14 182 -43 169 -37 151
-64 -29 -44 8 -81 45 -44 25 25 44 13 26 -17 -41 -70 -61 -94 -77 -94 -24 0
-74 -21 -225 -97 -162 -81 -158 -79 -138 -109 19 -30 61 -32 96 -4 14 11 28
20 31 20 6 0 31 19 78 62 56 49 152 63 215 31 57 -30 85 -34 117 -18 39 21 45
19 78 -17 50 -56 40 -66 -115 -108 -76 -21 -140 -40 -142 -42 -29 -29 -63 -82
-59 -93 3 -7 1 -16 -5 -20 -6 -3 -11 -22 -11 -42 0 -31 8 -44 59 -92 47 -46
65 -57 96 -59 21 -2 43 -6 48 -9 33 -20 83 -21 125 -2 43 20 142 110 142 129
0 6 18 10 41 10 22 0 63 10 90 21 53 23 76 54 74 101 -2 43 36 43 90 -1 25
-20 45 -43 45 -51 0 -9 -13 -24 -30 -33 -33 -20 -40 -47 -12 -47 30 0 60 -28
67 -63 4 -17 16 -51 26 -74 25 -55 25 -55 -13 -51 -32 3 -34 1 -51 -52 -9 -30
-26 -73 -36 -95 -28 -59 -43 -122 -39 -163 3 -35 1 -38 -49 -65 -56 -30 -62
-44 -39 -86 12 -21 12 -28 1 -45 -12 -18 -27 -86 -49 -220 -4 -19 2 -39 16
-58 17 -24 25 -28 47 -23 32 8 58 31 77 67 10 20 19 25 36 20 34 -8 63 -29 78
-56 7 -13 24 -26 37 -29 21 -4 28 1 44 37 28 61 24 77 -25 109 -53 33 -72 34
-104 4 -23 -21 -24 -21 -37 -3 -12 16 -12 24 1 55 38 88 53 130 56 157 7 52
35 98 98 164 36 37 77 93 95 129 l32 65 26 -28 c15 -16 30 -45 33 -65 4 -20
20 -53 36 -73 45 -58 38 -90 -38 -164 -61 -60 -84 -104 -84 -161 0 -37 13 -27
55 43 22 36 52 72 67 80 26 13 33 12 108 -27 78 -39 82 -40 101 -23 10 9 19
27 19 39 0 11 7 30 15 41 8 10 15 26 15 35 0 8 13 27 28 42 25 24 36 27 96 27
37 0 77 -5 89 -12 15 -8 72 -11 178 -10 115 2 168 -1 198 -12 23 -7 57 -12 77
-9 24 3 41 0 53 -11 9 -8 35 -18 56 -22 22 -3 47 -10 55 -14 8 -5 34 0 62 11
48 19 49 19 89 -2 46 -23 85 -27 115 -11 12 6 34 13 50 16 16 3 37 17 47 31
21 28 45 33 53 10 10 -24 97 -74 129 -73 17 1 40 -4 52 -10 11 -6 31 -9 44 -7
13 3 35 -3 49 -12 41 -29 83 -40 159 -42 56 -2 86 -9 138 -34 73 -33 79 -34
233 -19 97 10 109 9 154 -11 45 -19 73 -22 136 -14 45 5 107 -11 156 -42 66
-43 75 -41 69 14 l-4 45 52 2 c142 5 158 3 171 -14 16 -21 28 -24 20 -5 -3 8
11 37 31 66 19 29 35 57 35 63 0 5 -18 26 -40 45 -38 34 -39 37 -23 55 9 10
34 21 55 24 22 4 74 30 120 60 45 30 87 54 94 54 6 0 29 16 50 36 35 32 94 65
112 63 4 -1 28 -1 55 0 62 1 90 27 81 76 -6 32 -3 35 50 71 53 35 60 37 128
35 39 -1 102 -10 139 -21 85 -23 106 -14 88 39 -11 31 -10 35 17 60 33 32 100
61 202 87 70 18 83 26 62 39 -19 12 -10 22 35 39 28 11 63 38 98 76 47 50 61
59 96 63 70 7 87 37 55 99 -10 19 -14 42 -10 60 4 22 0 33 -19 50 -14 12 -32
33 -41 46 -16 24 -16 25 2 17 45 -19 90 -21 127 -7 35 13 39 13 51 -4 13 -17
38 -20 126 -15 14 1 56 -1 94 -5 68 -7 68 -7 56 15 -14 27 -24 31 -79 35 -24
2 -46 8 -50 13 -3 6 -19 13 -36 17 -26 7 -27 9 -12 17 9 6 22 7 27 4 12 -8 52
13 45 24 -4 8 -31 15 -105 27 -14 3 -36 9 -50 14 -14 5 -45 11 -70 14 -24 3
-51 12 -58 20 -12 12 -10 18 17 42 17 15 31 31 31 36 0 4 -16 16 -35 25 -19 9
-35 20 -35 24 0 10 -67 31 -96 31 -28 1 -27 0 -13 32 16 35 79 50 176 42 177
-14 219 -18 241 -21 20 -3 23 0 20 21 -3 24 -7 26 -63 29 -33 2 -81 8 -107 13
-47 9 -94 8 -131 -4 -25 -8 -197 33 -235 56 -19 12 -32 28 -32 40 0 12 -7 35
-16 52 -9 18 -15 51 -14 82 3 102 1 125 -15 156 -18 35 -13 80 8 80 7 0 26 13
41 29 18 19 43 32 70 36 45 8 77 22 88 39 4 6 24 11 45 11 31 0 38 4 38 20 0
17 -7 20 -50 21 -27 0 -67 6 -88 12 -50 14 -92 1 -136 -42 -44 -43 -83 -59
-139 -57 -46 1 -86 17 -78 30 3 4 42 29 87 55 44 26 100 65 124 87 30 28 51
39 73 39 17 0 34 5 37 10 4 6 10 8 14 5 9 -5 43 30 59 60 11 24 6 83 -9 101
-6 8 -42 37 -80 64 -37 28 -70 59 -74 68 -6 21 -106 128 -116 125 -20 -6 -38
36 -39 97 -3 133 -2 140 25 150 13 5 31 22 39 38 17 33 44 44 84 33 46 -14 79
11 97 73 13 46 22 57 52 71 31 15 37 15 50 2 14 -14 14 -18 -1 -38 -22 -32
-20 -53 9 -97 20 -31 23 -43 16 -74 -6 -24 -5 -40 2 -47 19 -19 55 -12 75 15
13 19 31 29 65 34 53 8 71 0 92 -40 17 -33 36 -38 54 -16 24 29 73 193 78 261
3 39 10 81 16 94 17 34 56 60 97 65 32 3 35 6 33 32 -1 17 -13 37 -27 49 -34
27 -58 89 -61 152 l-2 53 56 15 c31 9 64 18 74 21 9 3 17 9 17 14 0 12 -36 31
-53 29 -39 -5 -66 2 -61 16 3 8 14 17 24 20 54 17 21 75 -39 69 -30 -3 -43 1
-61 21 -13 14 -32 25 -42 25 -22 0 -23 8 -2 32 21 22 6 44 -36 53 -18 4 -37
19 -50 41 -24 38 -53 49 -105 40 -36 -7 -75 9 -75 31 0 6 9 18 21 27 15 10 19
20 14 35 -9 29 -33 26 -79 -9 -38 -29 -84 -39 -100 -22 -4 4 -12 8 -17 8 -5 1
-13 2 -19 3 -5 0 -9 4 -8 9 3 9 -31 64 -51 80 -8 6 -30 12 -47 12 -18 0 -44 5
-57 11 -27 12 -67 76 -67 107 0 22 24 47 38 38 10 -6 61 29 75 51 4 7 24 12
46 11 21 0 51 7 68 17 24 14 38 16 75 8 25 -6 83 -11 129 -12 76 -2 87 -5 113
-29 l28 -27 15 23 c18 25 40 28 63 7 23 -21 51 -9 81 34 l26 38 -30 26 c-17
15 -39 27 -48 27 -18 0 -61 34 -58 47 5 16 -101 15 -154 -3 -42 -14 -80 -17
-202 -15 -146 3 -175 9 -175 37 0 18 50 25 160 21 103 -4 150 4 193 36 24 16
28 25 23 49 -3 16 -19 48 -36 71 -24 35 -31 55 -35 111 -2 37 -8 73 -14 79 -5
7 -9 28 -9 47 0 43 -9 106 -22 151 -6 19 -10 49 -10 67 0 19 -8 42 -20 54 -11
12 -20 30 -20 40 0 10 -17 35 -38 56 -21 20 -49 56 -62 80 -24 43 -73 82 -103
82 -19 0 -47 37 -41 54 2 6 20 22 39 35 19 13 35 29 35 36 0 6 -20 22 -44 35
-46 23 -59 39 -48 57 9 14 79 49 123 61 l36 9 -10 -37 c-13 -46 -6 -65 31 -84
63 -33 122 -21 122 26 0 12 7 18 24 18 33 0 123 47 136 70 5 10 10 42 10 70 0
49 -2 54 -55 105 -30 29 -55 60 -55 69 0 20 -50 66 -73 66 -10 0 -33 -17 -52
-37 -32 -35 -35 -36 -59 -24 -37 20 -38 36 -5 70 16 17 29 37 29 45 0 24 -29
34 -65 23 -18 -5 -40 -7 -49 -4 -14 5 -10 16 20 64 59 93 190 257 289 363 13
14 54 52 91 85 37 33 86 89 110 125 40 62 116 137 193 190 80 54 231 237 231
279 0 16 -36 50 -66 61 -33 13 -95 0 -130 -26 -17 -13 -39 -43 -49 -67 -46
-112 -129 -259 -167 -299 -13 -12 -48 -52 -78 -87 -30 -35 -73 -81 -95 -102
-172 -162 -166 -159 -197 -135 -27 20 -95 -2 -151 -49 -59 -50 -161 -105 -194
-105 -19 0 -24 -4 -19 -15 3 -9 -1 -18 -9 -21 -21 -8 -136 35 -166 62 -30 29
-50 30 -73 5 -16 -18 -16 -22 -2 -49 14 -28 14 -30 -9 -40 -40 -18 -32 -34 45
-94 44 -34 36 -44 -61 -70 -81 -21 -123 -47 -144 -87 -7 -15 -48 -61 -90 -101
-62 -61 -86 -77 -134 -92 -32 -10 -64 -24 -70 -32 -17 -20 -67 -4 -97 31 -13
15 -24 32 -24 36 0 4 16 17 35 28 45 27 59 52 44 80 -9 18 -16 20 -57 14 -62
-9 -65 -12 -58 -51 6 -28 3 -36 -20 -51 -38 -25 -72 -24 -92 2 -10 12 -24 24
-32 28 -10 3 -11 6 -2 6 7 1 20 14 30 31 31 51 152 171 254 252 53 43 135 115
181 160 161 159 242 228 279 239 28 9 37 18 42 40 6 32 72 113 189 233 42 43
77 83 77 88 0 16 -44 -2 -70 -30 -14 -15 -46 -42 -71 -61 -25 -19 -74 -70
-110 -113 -35 -44 -86 -96 -114 -117 -27 -21 -156 -144 -285 -273 -214 -213
-420 -391 -436 -375 -3 3 5 21 19 39 28 36 25 51 -9 62 -31 10 -51 -27 -50
-93 1 -43 6 -57 25 -72 l24 -20 -33 6 c-18 3 -46 13 -62 21 -28 15 -31 14 -44
-4 -7 -11 -27 -25 -44 -32 -25 -11 -36 -10 -56 1 -14 7 -30 21 -35 30 -7 15
-14 16 -45 6 -26 -8 -43 -8 -65 0 -22 9 -29 8 -29 -1 0 -6 -9 -29 -20 -50 -17
-35 -18 -41 -5 -67 19 -37 19 -79 -1 -107 -15 -22 -14 -27 5 -72 12 -27 21
-61 21 -76 0 -25 -1 -26 -22 -12 -13 8 -33 32 -44 53 -25 43 -23 82 7 133 19
33 19 33 -2 61 -11 15 -21 45 -22 67 l-1 40 -56 -28 c-62 -32 -123 -41 -177
-26 -25 7 -44 6 -64 -3 -25 -10 -32 -9 -47 4 -12 11 -22 13 -32 7 -21 -13 -90
-12 -90 1 0 6 -18 28 -40 50 -22 22 -40 44 -40 49 0 4 -15 12 -32 15 -59 13
-152 48 -189 71 -60 37 -113 114 -80 114 13 0 23 36 27 88 3 55 9 61 32 32 10
-13 27 -24 38 -25 10 -1 38 -8 62 -15 35 -11 46 -11 67 0 14 7 25 16 25 20 0
3 -26 14 -57 24 -32 10 -67 25 -78 32 -11 8 -30 14 -44 14 -20 0 -127 28 -140
36 -8 6 -10 144 -2 144 9 0 37 -31 75 -83 27 -36 35 -26 25 29 -17 91 -90 164
-165 164 -36 0 -46 5 -65 31 -49 69 -64 225 -26 267 24 26 46 89 40 113 -3 10
-27 34 -53 53 -69 49 -74 72 -39 181 42 129 42 163 6 252 -16 41 -43 87 -59
103 -26 27 -28 35 -31 120 -4 96 -19 134 -65 155 -32 14 -44 53 -43 138 2 100
13 120 63 114 50 -7 56 7 20 43 -27 27 -36 29 -96 29 -46 -1 -70 4 -81 15 -9
8 -22 13 -30 10 -29 -12 -84 18 -149 81 -45 44 -80 68 -107 75 -21 6 -54 20
-73 31 -24 14 -49 19 -87 18 -32 -1 -67 4 -84 13 -17 8 -36 13 -42 11z m-1890
-2165 c8 -23 -5 -38 -32 -38 -15 0 -31 -8 -39 -20 -16 -27 -37 -27 -22 -1 5
11 10 30 10 42 0 16 5 20 19 16 10 -2 25 -1 32 4 19 12 27 11 32 -3z m52 -98
c-3 -5 -10 -10 -16 -10 -5 0 -9 5 -9 10 0 6 7 10 16 10 8 0 12 -4 9 -10z
m-705 -90 c0 -5 -7 -10 -16 -10 -8 0 -12 5 -9 10 3 6 10 10 16 10 5 0 9 -4 9
-10z m40 -40 c0 -5 -7 -10 -16 -10 -8 0 -12 5 -9 10 3 6 10 10 16 10 5 0 9 -4
9 -10z m69 -34 c9 -10 8 -15 -4 -20 -10 -4 -15 1 -15 14 0 24 4 25 19 6z m-28
-39 c-1 -12 -15 -9 -19 4 -3 6 1 10 8 8 6 -3 11 -8 11 -12z m101 -28 c-2 -19
-10 -41 -18 -50 -8 -8 -14 -20 -14 -27 0 -16 -81 -82 -101 -82 -19 0 -39 28
-39 54 0 9 15 19 38 26 44 11 77 42 92 87 16 44 46 39 42 -8z m1026 -37 c-2
-21 -11 -30 -38 -38 -31 -11 -35 -10 -38 7 -2 10 6 28 17 40 12 13 24 31 27
42 6 18 6 18 21 -2 8 -12 13 -34 11 -49z m-1258 -33 c0 -5 -7 -9 -15 -9 -9 0
-12 6 -9 15 6 15 24 11 24 -6z m1260 -102 c0 -62 -24 -78 -67 -44 -19 14 21
87 47 87 17 0 20 -7 20 -43z m-1083 -56 c0 -35 4 -41 26 -41 13 0 31 -6 42
-13 17 -13 17 -15 -1 -45 -10 -18 -24 -32 -31 -32 -15 0 -33 39 -26 56 2 6
-12 14 -33 17 -38 6 -84 41 -84 63 0 9 16 13 54 13 42 -1 53 -4 53 -18z m-124
-36 c-6 -17 -25 -15 -31 3 -2 7 5 12 17 12 14 0 19 -5 14 -15z m1163 -13 c12
-10 26 -27 32 -38 7 -14 22 -21 49 -22 88 -6 138 -23 157 -55 8 -13 8 -20 -3
-27 -10 -6 -25 0 -50 21 -26 21 -46 29 -74 29 -43 0 -91 22 -106 47 -9 17 -11
16 -30 -1 -21 -19 -21 -19 -21 16 0 51 11 59 46 30z m-985 -122 c22 0 48 4 58
9 15 8 17 6 13 -19 -2 -16 -14 -40 -27 -52 -32 -32 -77 -69 -80 -66 -2 2 -5
18 -8 36 -5 29 -29 61 -48 62 -8 0 -39 68 -39 85 0 10 15 3 46 -20 34 -26 55
-35 85 -35z m4409 -100 c0 -5 -5 -12 -11 -16 -6 -3 -8 -17 -5 -29 7 -27 -4
-38 -28 -29 -12 5 -16 20 -16 66 l0 59 30 -21 c17 -12 30 -25 30 -30z m-4338
-70 c-2 -14 -10 -31 -17 -39 -12 -12 -17 -9 -34 20 -28 46 -27 50 17 46 33 -2
37 -5 34 -27z m-85 -24 c-5 -16 -27 -19 -27 -3 0 7 7 14 15 14 9 0 14 -5 12
-11z m153 -11 c0 -8 -4 -15 -10 -15 -5 0 -10 7 -10 15 0 8 5 15 10 15 6 0 10
-7 10 -15z m-30 -51 c14 -36 12 -50 -6 -69 -22 -21 -30 -8 -27 47 2 52 1 48
13 48 6 0 15 -12 20 -26z"/>
<path d="M5008 9283 c-37 -9 -31 -63 7 -63 30 0 52 27 39 48 -12 18 -22 21
-46 15z"/>
<path d="M4883 9273 c-15 -5 -18 -43 -4 -43 5 0 14 7 21 15 14 17 3 35 -17 28z"/>
<path d="M5088 9246 c-16 -5 -28 -17 -29 -25 0 -9 -3 -28 -5 -42 -3 -16 3 -35
15 -50 16 -20 29 -24 71 -24 42 0 55 4 71 24 56 69 -31 152 -123 117z"/>
<path d="M6502 9163 c-21 -26 -20 -53 2 -53 31 1 53 44 32 65 -11 12 -17 10
-34 -12z"/>
<path d="M6353 9154 c-5 -14 11 -33 28 -34 10 0 20 31 13 41 -9 15 -34 10 -41
-7z"/>
<path d="M6900 8955 c-22 -26 3 -54 38 -42 17 5 2 57 -18 57 -4 0 -13 -7 -20
-15z"/>
<path d="M6600 8910 c-13 -8 -13 -11 1 -26 14 -13 20 -14 37 -3 16 10 18 16
10 26 -12 15 -27 16 -48 3z"/>
<path d="M6015 8880 c-16 -26 -13 -50 6 -50 10 0 19 3 19 8 0 4 3 17 6 30 5
16 2 22 -9 22 -9 0 -19 -4 -22 -10z"/>
<path d="M2313 8822 c-6 -4 -13 -16 -15 -27 -5 -21 25 -114 50 -155 24 -38 74
-90 89 -90 20 0 31 31 26 74 -9 85 -112 221 -150 198z"/>
<path d="M5430 8818 l-25 -9 24 -20 c28 -23 54 -21 59 3 5 24 -27 38 -58 26z"/>
<path d="M5322 8756 c-47 -13 -62 -28 -55 -57 7 -24 19 -24 86 2 53 20 55 22
45 45 -12 26 -14 27 -76 10z"/>
<path d="M5788 8695 c-6 -14 -17 -25 -24 -25 -7 0 -20 -7 -28 -16 -13 -12 -14
-20 -5 -37 l12 -21 21 25 c13 15 30 24 44 23 31 -2 60 39 42 61 -19 23 -49 18
-62 -10z"/>
<path d="M6065 8700 c-3 -5 -3 -15 0 -20 7 -12 45 5 45 20 0 13 -37 13 -45 0z"/>
<path d="M2355 8468 c11 -35 30 -51 54 -43 30 9 26 32 -9 50 -41 21 -53 19
-45 -7z"/>
<path d="M5571 8421 c-12 -21 -5 -31 19 -31 26 0 42 24 28 38 -17 17 -36 15
-47 -7z"/>
<path d="M5361 8391 c-12 -8 -13 -12 -2 -25 16 -19 43 -3 34 20 -6 16 -12 17
-32 5z"/>
<path d="M5710 8310 c-15 -28 -18 -63 -8 -82 9 -19 53 -24 63 -8 4 6 10 8 14
6 13 -9 51 24 51 44 0 23 -6 27 -65 44 -42 13 -46 13 -55 -4z"/>
<path d="M2785 8251 c-3 -10 3 -36 12 -58 16 -36 21 -40 41 -32 31 12 36 31
18 73 -11 28 -21 36 -40 36 -15 0 -27 -7 -31 -19z"/>
<path d="M6120 8171 c0 -23 24 -72 39 -80 22 -11 65 1 69 20 1 8 -8 24 -20 36
-24 21 -88 39 -88 24z"/>
<path d="M2323 8135 c-30 -21 -34 -51 -12 -79 10 -13 19 -31 19 -39 0 -9 14
-28 31 -44 17 -15 42 -45 55 -65 20 -32 30 -38 59 -38 43 0 59 24 38 56 -8 13
-13 31 -11 41 7 30 -18 67 -79 120 -75 64 -76 65 -100 48z"/>
<path d="M5851 7934 c-14 -40 -4 -61 24 -51 25 10 35 49 17 70 -21 24 -26 22
-41 -19z"/>
<path d="M907 7877 c-22 -22 -9 -52 27 -61 28 -7 76 -79 76 -114 0 -23 10 -32
59 -49 46 -16 83 -7 128 32 32 27 37 37 36 72 -2 114 -35 136 -203 137 -88 1
-108 -2 -123 -17z"/>
<path d="M2615 7800 c-4 -6 -24 -10 -45 -10 -44 0 -91 -15 -102 -33 -14 -22
-8 -56 10 -61 99 -30 190 -28 314 7 59 16 105 34 102 38 -11 18 -118 49 -169
49 -29 0 -65 4 -79 10 -16 6 -27 6 -31 0z"/>
<path d="M5765 7783 c-32 -8 -63 -42 -58 -63 3 -10 16 -29 30 -42 31 -29 82
-28 167 1 33 12 67 21 78 21 25 0 23 12 -9 41 -22 20 -37 25 -73 24 -25 -1
-55 4 -67 12 -23 13 -33 14 -68 6z"/>
<path d="M1344 7709 c-23 -5 -49 -18 -58 -28 -52 -57 4 -209 90 -241 54 -21
142 34 169 104 21 54 10 98 -35 141 -32 31 -95 40 -166 24z"/>
<path d="M3130 7480 c0 -14 46 -60 60 -60 17 0 11 20 -15 45 -25 26 -45 32
-45 15z"/>
<path d="M2036 7358 c-24 -46 -21 -51 31 -44 63 7 72 19 38 50 -36 34 -50 33
-69 -6z"/>
<path d="M7648 7370 c-9 -6 -30 -23 -46 -38 -16 -15 -51 -45 -79 -67 -28 -22
-67 -64 -88 -94 -35 -50 -36 -53 -14 -46 36 11 73 40 105 82 41 54 75 82 107
90 24 5 77 58 77 76 0 10 -43 8 -62 -3z"/>
<path d="M2062 7263 c4 -22 24 -27 31 -9 3 8 -2 16 -14 19 -15 4 -19 1 -17
-10z"/>
<path d="M2180 7261 c0 -11 29 -35 35 -29 10 9 -7 38 -21 38 -8 0 -14 -4 -14
-9z"/>
<path d="M2103 7178 c2 -7 10 -13 17 -13 7 0 15 6 18 13 2 7 -5 12 -18 12 -13
0 -20 -5 -17 -12z"/>
<path d="M2180 7169 c0 -12 5 -19 12 -17 18 6 20 25 3 31 -10 5 -15 0 -15 -14z"/>
<path d="M261 7129 c-64 -28 -60 -95 8 -122 31 -13 41 -13 71 -1 19 8 43 24
52 35 17 20 17 23 -2 60 -11 21 -26 40 -33 40 -6 1 -22 3 -34 4 -12 1 -40 -6
-62 -16z"/>
<path d="M7337 7075 c-25 -19 -53 -52 -64 -74 -12 -28 -25 -41 -42 -43 -13 -2
-30 -13 -39 -25 -14 -23 -14 -23 34 -23 27 0 54 4 60 8 6 4 25 34 44 67 18 33
42 75 52 93 25 41 12 41 -45 -3z"/>
<path d="M6914 7019 c-3 -6 -2 -15 4 -21 12 -12 55 8 47 23 -8 12 -42 12 -51
-2z"/>
<path d="M6137 6953 c-20 -19 14 -53 53 -53 40 0 45 15 14 39 -27 21 -55 27
-67 14z"/>
<path d="M22 6550 c-29 -28 -28 -54 4 -79 32 -25 66 -27 99 -5 29 19 34 64 9
88 -22 23 -86 20 -112 -4z"/>
<path d="M1773 6308 c2 -7 10 -13 17 -13 7 0 15 6 18 13 2 7 -5 12 -18 12 -13
0 -20 -5 -17 -12z"/>
<path d="M8481 6214 c-28 -20 -27 -32 6 -45 31 -12 58 7 48 33 -9 24 -30 28
-54 12z"/>
<path d="M9182 6073 c-22 -9 -33 -40 -18 -52 18 -15 59 20 50 43 -6 17 -10 18
-32 9z"/>
<path d="M9556 5862 c-3 -3 -6 -14 -6 -24 0 -24 26 -23 39 1 9 15 7 20 -9 24
-10 3 -21 2 -24 -1z"/>
<path d="M240 5785 c-19 -22 -8 -49 25 -58 17 -5 50 -18 75 -30 25 -11 58 -22
74 -23 17 -2 49 -10 73 -19 24 -9 62 -18 85 -20 23 -2 47 -10 53 -18 18 -24
48 -35 125 -42 75 -7 100 -17 100 -40 0 -22 40 -49 73 -49 18 0 48 8 67 17 20
9 56 16 84 15 85 -4 98 57 19 83 -21 6 -50 20 -64 30 -14 10 -34 18 -45 18
-10 0 -46 9 -79 20 -95 31 -194 51 -277 54 -42 2 -83 8 -90 14 -11 9 -40 15
-153 29 -16 2 -47 11 -68 19 -47 19 -61 19 -77 0z"/>
<path d="M8680 5785 c-12 -14 -11 -18 0 -25 18 -11 42 -1 38 18 -4 22 -23 25
-38 7z"/>
<path d="M9386 5761 c-11 -12 -17 -21 -15 -22 47 -9 97 -7 114 5 26 18 19 24
-36 32 -37 5 -47 3 -63 -15z"/>
<path d="M173 5453 c-21 -8 -15 -31 11 -48 19 -13 29 -14 45 -5 51 27 -1 76
-56 53z"/>
<path d="M8526 4857 c-26 -19 -14 -47 19 -47 18 0 25 5 25 20 0 11 0 23 1 28
0 13 -26 13 -45 -1z"/>
<path d="M8770 4668 c-24 -13 -42 -27 -41 -33 2 -10 37 -12 80 -3 33 6 51 35
31 48 -20 13 -20 13 -70 -12z"/>
<path d="M8911 4232 c-11 -21 3 -52 24 -52 21 0 26 15 15 44 -11 30 -25 33
-39 8z"/>
<path d="M542 4208 c-18 -18 -15 -68 5 -75 19 -7 53 29 53 57 0 27 -37 39 -58
18z"/>
<path d="M1072 3809 c-32 -7 -49 -16 -41 -22 2 -2 47 -21 99 -42 52 -21 111
-45 130 -53 l35 -14 -20 23 c-74 86 -141 122 -203 108z"/>
<path d="M8414 3573 c-1 -85 -9 -116 -48 -200 -39 -81 -37 -97 10 -101 43 -3
69 29 81 101 2 16 11 46 18 67 9 24 10 40 4 42 -6 2 -14 24 -20 48 -12 55 -29
100 -38 100 -4 0 -7 -26 -7 -57z"/>
<path d="M1365 3290 c-80 -20 -101 -40 -73 -68 16 -16 50 -15 74 3 10 8 26 15
35 15 23 0 50 23 41 36 -11 17 -43 23 -77 14z"/>
<path d="M1443 2967 c-18 -7 -57 -31 -87 -54 -85 -67 -81 -107 21 -214 l53
-56 -60 -12 c-87 -17 -91 -33 -29 -107 70 -83 96 -94 164 -68 39 14 93 64 104
95 10 29 8 34 -22 64 l-33 33 38 58 c21 33 45 67 52 76 35 41 39 60 22 92 -42
76 -149 120 -223 93z"/>
<path d="M8992 2968 c-16 -16 -15 -45 2 -51 17 -7 56 19 56 37 0 8 -7 17 -16
20 -22 8 -28 8 -42 -6z"/>
<path d="M1692 2432 c-15 -10 -6 -42 12 -42 6 0 17 4 25 9 12 8 12 12 2 25
-15 18 -21 19 -39 8z"/>
<path d="M2033 2330 c-13 -12 -23 -33 -23 -48 0 -15 -7 -37 -15 -48 -12 -18
-12 -24 -1 -40 13 -17 15 -17 40 0 36 23 40 36 30 102 l-9 55 -22 -21z"/>
<path d="M8252 2298 c37 -29 97 -42 127 -28 24 11 25 12 6 22 -10 6 -50 14
-88 18 -67 6 -68 6 -45 -12z"/>
<path d="M1983 2113 c-27 -27 -29 -39 -9 -46 20 -8 38 17 34 45 l-3 23 -22
-22z"/>
<path d="M8887 2043 c-10 -10 13 -33 34 -33 23 0 69 21 69 32 0 9 -94 11 -103
1z"/>
<path d="M8833 1837 c-31 -14 -29 -27 5 -28 15 0 34 -2 42 -4 86 -21 172 -36
177 -32 2 3 0 14 -5 24 -7 13 -33 24 -84 35 -86 19 -105 19 -135 5z"/>
<path d="M1120 1665 c-29 -31 -27 -89 5 -121 76 -76 192 -68 242 17 25 41 11
72 -47 103 -41 23 -60 27 -115 25 -51 -2 -69 -6 -85 -24z"/>
<path d="M1491 1610 c-84 -12 -109 -87 -46 -136 30 -23 42 -26 86 -22 37 4 57
12 79 33 17 16 30 35 30 43 0 17 -65 79 -88 84 -10 2 -37 1 -61 -2z"/>
<path d="M973 1593 c-6 -16 15 -35 32 -30 6 2 10 12 10 22 0 22 -34 29 -42 8z"/>
<path d="M8899 1544 c-10 -13 -10 -17 2 -25 22 -14 56 -11 63 6 3 8 -3 19 -14
25 -26 14 -35 13 -51 -6z"/>
<path d="M1201 1416 c-18 -22 19 -40 44 -22 18 13 18 14 -3 25 -26 14 -27 14
-41 -3z"/>
<path d="M2275 1380 c-9 -28 11 -50 46 -50 38 0 62 25 49 51 -15 28 -86 27
-95 -1z"/>
<path d="M1741 1356 c-17 -32 -7 -50 20 -35 13 6 19 18 17 31 -4 31 -22 32
-37 4z"/>
<path d="M2558 846 c-26 -20 -22 -36 10 -36 42 0 57 14 37 34 -20 19 -25 19
-47 2z"/>
<path d="M3629 788 c0 -18 -2 -40 -3 -48 -2 -8 -6 -37 -9 -63 l-6 -48 40 32
c81 64 86 100 19 138 l-40 22 -1 -33z"/>
<path d="M7409 726 c-2 -2 -23 -6 -47 -10 -52 -7 -112 -34 -112 -50 0 -16 91
-11 123 5 35 19 73 59 55 59 -8 0 -17 -2 -19 -4z"/>
<path d="M3068 699 c-10 -5 -18 -18 -18 -28 0 -21 45 -44 70 -36 28 9 32 43 7
60 -25 17 -36 18 -59 4z"/>
<path d="M2876 521 c-36 -14 -41 -73 -8 -86 43 -17 63 -15 87 9 29 29 31 48 9
70 -16 17 -56 20 -88 7z"/>
<path d="M6317 359 c-27 -43 -30 -67 -9 -74 11 -3 31 -16 45 -29 18 -17 33
-22 51 -19 32 6 68 50 64 76 -4 28 -48 58 -95 64 -35 5 -43 2 -56 -18z"/>
<path d="M6152 357 c-15 -18 -3 -57 17 -57 31 0 54 24 47 48 -8 25 -47 30 -64
9z"/>
<path d="M6660 250 c0 -35 12 -50 52 -60 30 -9 43 -8 54 1 19 15 10 24 -55 54
-48 23 -51 23 -51 5z"/>
</g>
</svg>
